<svg xmlns="http://www.w3.org/2000/svg" viewBox="0 0 512 512">
  <defs>
    <linearGradient id="bg" x1="0%" y1="0%" x2="100%" y2="100%">
      <stop offset="0%" style="stop-color:#1a1a2e"/>
      <stop offset="100%" style="stop-color:#0a0a1a"/>
    </linearGradient>
    <linearGradient id="accent" x1="0%" y1="0%" x2="100%" y2="100%">
      <stop offset="0%" style="stop-color:#00f5d4"/>
      <stop offset="100%" style="stop-color:#00cc88"/>
    </linearGradient>
  </defs>
  <rect width="512" height="512" rx="100" fill="url(#bg)"/>
  <g transform="translate(256, 256)">
    <!-- Calculator body -->
    <rect x="-120" y="-140" width="240" height="280" rx="20" fill="#2a2a4a" opacity="0.8"/>
    <!-- Screen -->
    <rect x="-100" y="-120" width="200" height="60" rx="10" fill="#0a0a1a"/>
    <text x="80" y="-75" fill="url(#accent)" font-family="system-ui" font-size="36" font-weight="bold" text-anchor="end">168,62</text>
    <!-- Buttons -->
    <rect x="-100" y="-40" width="45" height="45" rx="8" fill="url(#accent)"/>
    <rect x="-45" y="-40" width="45" height="45" rx="8" fill="#3a3a5a"/>
    <rect x="10" y="-40" width="45" height="45" rx="8" fill="#3a3a5a"/>
    <rect x="65" y="-40" width="35" height="45" rx="8" fill="#ffd700"/>
    <rect x="-100" y="15" width="45" height="45" rx="8" fill="#3a3a5a"/>
    <rect x="-45" y="15" width="45" height="45" rx="8" fill="#3a3a5a"/>
    <rect x="10" y="15" width="45" height="45" rx="8" fill="#3a3a5a"/>
    <rect x="65" y="15" width="35" height="45" rx="8" fill="#3a3a5a"/>
    <rect x="-100" y="70" width="45" height="45" rx="8" fill="#3a3a5a"/>
    <rect x="-45" y="70" width="100" height="45" rx="8" fill="#00cc88"/>
    <rect x="65" y="70" width="35" height="45" rx="8" fill="#3a3a5a"/>
    <!-- Check mark -->
    <path d="-30,92 L-10,110 L30,75" stroke="white" stroke-width="6" fill="none" stroke-linecap="round" stroke-linejoin="round" transform="translate(5, 0)"/>
  </g>
</svg>

